<svg width="125" height="39" viewBox="0 0 125 39" fill="none" xmlns="http://www.w3.org/2000/svg">
<g clip-path="url(#clip0_4251_3131)">
<path d="M14.8547 19.7962C11.7368 24.4374 7.03177 27.3943 1.93975 28.3184C0.69756 25.7447 0 22.8414 0 19.771C0 16.7005 0.655425 13.9817 1.81958 11.4727C6.92254 12.3148 11.6712 15.2007 14.8547 19.7946V19.7962Z" fill="#E57200"/>
<path d="M22.7012 19.7887C25.8144 15.1443 30.5179 12.1842 35.6084 11.2554C36.8537 13.8275 37.5528 16.7292 37.5559 19.7997C37.559 22.7708 36.9052 25.589 35.7426 28.0996C30.6396 27.2622 25.8878 24.381 22.7012 19.7887Z" fill="#ED8B00"/>
<path d="M16.8118 16.3634C11.275 15.9581 6.3874 13.3229 3.04785 9.3299C4.63023 6.95489 6.76817 4.89215 9.39767 3.35455C12.0272 1.81695 14.6848 1.03159 17.4173 0.793457C19.2493 5.67908 19.1557 11.2775 16.8118 16.3634Z" fill="#ED8B00"/>
<path d="M16.821 23.23C19.243 28.278 19.4287 33.8733 17.6777 38.7936C14.8516 38.5981 12.0146 37.7575 9.38194 36.2247C6.74931 34.6918 4.74715 32.7599 3.17725 30.4874C6.44657 26.4408 11.292 23.722 16.821 23.23Z" fill="#ED8B00"/>
<path d="M20.7456 23.2233C26.2824 23.6238 31.1716 26.2543 34.5158 30.2442C32.9365 32.6208 30.8002 34.6851 28.1707 36.2243C25.5412 37.7634 22.8851 38.5519 20.1542 38.7917C18.3174 33.9076 18.4079 28.3076 20.7456 23.2217V23.2233Z" fill="#E57200"/>
<path d="M20.735 16.3586C18.3146 11.3105 18.1289 5.71524 19.8798 0.794922C22.706 0.99205 25.543 1.83103 28.1756 3.36547C30.7224 4.84945 32.8104 6.8302 34.3803 9.10269C31.1094 13.1493 26.264 15.8666 20.735 16.3586Z" fill="#E57200"/>
<path d="M50.9019 27.1484H54.5426V27.7729H51.5791V29.9745H54.3928V30.5816H51.5791V33.2563H50.9034V27.1484H50.9019Z" fill="black"/>
<path d="M57.0127 30.2114C57.0127 28.0352 58.3563 27.0811 59.8591 27.0811C61.3619 27.0811 62.6899 28.0352 62.6899 30.2114C62.6899 32.3877 61.3463 33.3497 59.8435 33.3497C58.3407 33.3497 57.0127 32.4303 57.0127 30.2114ZM62.0142 30.2114C62.0142 28.6502 61.1793 27.7134 59.8607 27.7134C58.542 27.7134 57.6822 28.6423 57.6822 30.2114C57.6822 31.7806 58.4921 32.7173 59.8451 32.7173C61.1981 32.7173 62.0158 31.8058 62.0158 30.2114H62.0142Z" fill="black"/>
<path d="M65.321 30.3876V27.1484H65.9967V30.3876C65.9967 32.0419 66.5647 32.7075 67.7913 32.7075C69.0179 32.7075 69.5859 32.0404 69.5859 30.3876V27.1484H70.2616V30.3876C70.2616 32.4047 69.4096 33.3414 67.7898 33.3414C66.1699 33.3414 65.3179 32.4141 65.3179 30.3876H65.321Z" fill="black"/>
<path d="M73.2036 27.1484H73.9137L77.4873 32.2359V27.1484H78.1552V33.2563H77.4701L73.8809 28.1435V33.2563H73.2052V27.1484H73.2036Z" fill="black"/>
<path d="M81.1855 27.1484H82.6306C85.0931 27.1484 86.1044 28.0931 86.1044 30.2031C86.1044 32.3132 85.0947 33.2578 82.6306 33.2578H81.1855V27.15V27.1484ZM82.6462 32.6239C84.6078 32.6239 85.4271 31.9063 85.4271 30.1937C85.4271 28.481 84.6094 27.7729 82.6384 27.7729H81.8613V32.6239H82.6462Z" fill="black"/>
<path d="M92.5248 31.8984H89.1853L88.6172 33.2563H87.8916L90.5211 27.1484H91.1812L93.8107 33.2563H93.0929L92.5248 31.8984ZM92.2829 31.3244L90.8473 27.9165L89.4272 31.3244H92.2829Z" fill="black"/>
<path d="M96.7584 27.7808H94.9888V27.1484H99.196V27.7808H97.4341V33.2563H96.7584V27.7808Z" fill="black"/>
<path d="M101.984 27.1484H102.66V33.2563H101.984V27.1484Z" fill="black"/>
<path d="M105.5 30.2114C105.5 28.0352 106.844 27.0811 108.347 27.0811C109.85 27.0811 111.178 28.0352 111.178 30.2114C111.178 32.3877 109.834 33.3497 108.331 33.3497C106.829 33.3497 105.5 32.4303 105.5 30.2114ZM110.5 30.2114C110.5 28.6502 109.666 27.7134 108.347 27.7134C107.028 27.7134 106.168 28.6423 106.168 30.2114C106.168 31.7806 106.978 32.7173 108.331 32.7173C109.684 32.7173 110.502 31.8058 110.502 30.2114H110.5Z" fill="black"/>
<path d="M113.598 27.1484H114.308L117.881 32.2359V27.1484H118.549V33.2563H117.864L114.275 28.1435V33.2563H113.599V27.1484H113.598Z" fill="black"/>
<path d="M42.7555 19.2164L45.7298 18.819C46.1637 20.1122 47.2467 20.8092 48.7823 20.8092C50.3178 20.8092 51.2448 20.1721 51.2245 19.0966C51.1855 16.2705 43.2658 18.122 43.2658 12.7064C43.2658 10.1785 45.3928 8.48633 48.4467 8.48633C51.5007 8.48633 53.6277 9.82049 54.1786 12.3879L51.3228 12.7853C50.8703 11.6309 49.9636 11.0332 48.5451 11.0332C47.1265 11.0332 46.2994 11.6498 46.2994 12.6449C46.2994 15.7107 54.3565 13.5202 54.3565 18.9956C54.3565 21.604 52.1702 23.3151 48.801 23.3151C45.6487 23.3151 43.3641 21.8422 42.7539 19.2148L42.7555 19.2164Z" fill="black"/>
<path d="M55.7563 17.425C55.7563 13.6023 57.9427 11.5127 60.7391 11.5127C62.3356 11.5127 63.7728 12.3091 64.344 13.6622V11.7319H67.3386V23.0975H64.344V21.2461C63.7931 22.5598 62.3356 23.3767 60.7594 23.3767C57.9629 23.3767 55.7563 21.2461 55.7563 17.425ZM64.4438 17.425C64.4438 15.2944 63.2625 14.0217 61.5881 14.0217C59.9136 14.0217 58.751 15.2755 58.751 17.425C58.751 19.5744 59.9323 20.8487 61.6068 20.8487C63.2812 20.8487 64.4438 19.5744 64.4438 17.425Z" fill="black"/>
<path d="M69.9386 11.7319H72.9332V13.6023C73.3265 12.328 74.6077 11.5127 76.2026 11.5127C78.0346 11.5127 78.9803 12.1703 79.5905 13.9413C80.1226 12.5677 81.4428 11.5127 83.5496 11.5127C86.3663 11.5127 87.5289 13.1449 87.5289 17.1064V23.118H84.5343V17.3855C84.5343 14.9774 83.9428 14.0612 82.4073 14.0612C80.8717 14.0612 80.2007 15.0168 80.2007 17.2862V23.118H77.206V17.4045C77.206 14.9364 76.6551 14.0801 75.1383 14.0801C73.6214 14.0801 72.9317 15.0957 72.9317 17.5038V23.118H69.937V11.7319H69.9386Z" fill="black"/>
<path d="M89.6763 18.0212V11.7305H92.6709V17.7421C92.6709 19.8127 93.3607 20.7684 95.1132 20.7684C96.8657 20.7684 97.5164 19.6534 97.5164 17.5434V11.7305H100.511V23.1166H97.5164V21.3046C97.0248 22.5394 95.7436 23.3547 94.0489 23.3547C91.0355 23.3547 89.6763 21.6026 89.6763 18.0196V18.0212Z" fill="black"/>
<path d="M102.48 17.425C102.48 13.9208 104.845 11.5127 108.251 11.5127C111.975 11.5127 114.161 14.14 113.807 18.122H105.475C105.534 19.9734 106.638 21.0474 108.429 21.0474C109.709 21.0474 110.556 20.5696 110.97 19.6344L113.709 19.9734C112.9 22.1828 111.07 23.3372 108.351 23.3372C104.806 23.3372 102.48 20.989 102.48 17.425ZM111.068 16.1302C110.949 14.6179 109.926 13.6417 108.329 13.6417C106.733 13.6417 105.709 14.5169 105.533 16.1302H111.068Z" fill="black"/>
<path d="M115.934 8.0293H118.947V23.1183H115.934V8.0293Z" fill="black"/>
<path d="M121.213 8.72623C121.213 7.73112 121.942 7.19336 122.926 7.19336C123.852 7.19336 124.64 7.73112 124.64 8.72623C124.64 9.72133 123.852 10.2591 122.926 10.2591C121.942 10.2591 121.213 9.70241 121.213 8.72623ZM121.43 11.732H124.404V23.1182H121.43V11.732Z" fill="black"/>
</g>
<defs>
<clipPath id="clip0_4251_3131">
<rect width="124.64" height="38" fill="black" transform="translate(0 0.793457)"/>
</clipPath>
</defs>
</svg>
